Coordinates
version=1
nRows=20
nColumns=23
inDegrees=yes

Units are S.I. units (second, meters, Newtons, ...)
If the header above contains a line with 'inDegrees', this indicates whether rotational values are in degrees (yes) or radians (no).

endheader
time	pelvis_tilt	pelvis_list	pelvis_rotation	pelvis_tx	pelvis_ty	pelvis_tz	hip_flexion_r	hip_adduction_r	hip_rotation_r	knee_angle_r	knee_angle_r_beta	ankle_angle_r	subtalar_angle_r	mtp_angle_r	hip_flexion_l	hip_adduction_l	hip_rotation_l	knee_angle_l	knee_angle_l_beta	ankle_angle_l	subtalar_angle_l	mtp_angle_l
      0.00000000	      2.93699847	      1.48868021	      0.73842054	      2.20174141	      1.02995150	      1.02010439	     28.04880960	     -1.42967694	     -3.47755681	     79.44235048	      1.38653058	      2.31231564	    -11.75895462	      0.00000000	    -12.75916523	      2.13571518	     -3.09220100	     27.01109161	      0.47143248	     14.87490051	      8.76132501	      0.00000000
      0.00666667	      2.84176231	      1.00349165	      0.12154373	      2.20380053	      1.03508447	      1.02088136	     28.43277486	     -0.91800765	     -3.72234166	     76.62843642	      1.33741852	      2.28485153	    -11.76287061	      0.00000000	    -14.30405780	      1.89157137	     -3.85022505	     25.27019912	      0.44104818	     11.43771586	      7.99392692	      0.00000000
      0.01333333	      2.59553253	      0.50489390	     -0.45733106	      2.20582737	      1.03990977	      1.02163288	     28.86389613	     -0.35248034	     -3.97896542	     73.70666291	      1.28642395	      2.39636800	    -11.58239970	      0.00000000	    -15.66062034	      1.68356809	     -4.48652306	     23.56023711	      0.41120371	      8.00166541	      7.05782789	      0.00000000
      0.02000000	      2.28265548	      0.03816065	     -0.95363917	      2.20784261	      1.04449557	      1.02227809	     29.24789500	      0.15429243	     -4.31898912	     70.68231658	      1.23363915	      2.52386256	    -11.24033137	      0.00000000	    -16.90383170	      1.55311344	     -4.85765186	     21.88388728	      0.38194589	      4.41989035	      5.67795015	      0.00000000
      0.02666667	      1.93247533	     -0.47503865	     -1.49269843	      2.20982829	      1.04876049	      1.02301747	     29.57744793	      0.78451894	     -4.60941507	     67.55763362	      1.17910314	      2.63518927	    -10.91154989	      0.00000000	    -17.92703105	      1.26282551	     -5.85140248	     20.57087365	      0.35902948	      1.13605555	      5.23207797	      0.00000000
      0.03333333	      1.51773423	     -0.88823714	     -1.94118676	      2.21177050	      1.05278913	      1.02358134	     29.88009803	      1.23432262	     -5.00983969	     64.35221763	      1.12315808	      2.71325695	    -10.41170868	      0.00000000	    -18.77299512	      1.10758405	     -6.53160132	     19.38871560	      0.33839692	     -2.25320576	      4.20651571	      0.00000000
      0.04000000	      0.60054432	     -1.17583661	     -2.30386269	      2.21359452	      1.05600324	      1.02412762	     30.68862004	      1.58090652	     -5.42138655	     61.14058138	      1.06710445	      2.81127433	     -9.71518234	      0.00000000	    -18.71610889	      0.91069123	     -7.50197100	     18.89901220	      0.32984999	     -5.01144196	      4.27112604	      0.00000000
      0.04666667	      0.53121702	     -1.50459165	     -2.85946290	      2.21541515	      1.05985444	      1.02477012	     30.46892480	      2.01456276	     -5.73286497	     57.81416689	      1.00904757	      2.81327216	     -8.95896172	      0.00000000	    -19.72137097	      0.86778202	     -8.39393217	     18.05570788	      0.31513155	     -8.39321107	      2.95243959	      0.00000000
      0.05333333	     -0.06097292	     -1.68086513	     -3.33168037	      2.21716142	      1.06281573	      1.02541370	     30.79544815	      2.28019358	     -6.12358792	     54.54021255	      0.95190628	      2.88492749	     -7.87784925	      0.00000000	    -19.83756824	      0.84340766	     -9.31248675	     17.84028471	      0.31137171	    -11.14221001	      2.16035014	      0.00000000
      0.06000000	     -0.76519122	     -1.68817298	     -3.76793568	      2.21868181	      1.06530261	      1.02606661	     31.22376117	      2.39754678	     -6.48606348	     51.28711711	      0.89512906	      2.81993872	     -6.72379349	      0.00000000	    -19.57332449	      0.89178580	    -10.27863836	     18.09484327	      0.31581459	    -13.57889300	      1.70844673	      0.00000000
      0.06666667	     -1.39415756	     -1.67376914	     -4.22207055	      2.22019223	      1.06748084	      1.02687760	     31.52315954	      2.52233123	     -6.87991039	     48.07334796	      0.83903820	      2.74890439	     -5.39412259	      0.00000000	    -19.28804024	      0.96458837	    -11.08338012	     18.54284290	      0.32363366	    -15.74678497	      1.15521490	      0.00000000
      0.07333333	     -1.84118069	     -1.64962668	     -4.58701520	      2.22160807	      1.06944833	      1.02758887	     31.59217586	      2.53944932	     -7.51694795	     44.96140256	      0.78472451	      2.78898838	     -3.54216038	      0.00000000	    -19.06184671	      1.03020734	    -11.60872545	     19.23918875	      0.33578719	    -17.66673024	      0.22458294	      0.00000000
      0.08000000	     -2.41021543	     -1.53462868	     -5.02541268	      2.22291391	      1.07080109	      1.02857155	     31.79513328	      2.62614410	     -7.91011754	     41.96241894	      0.73238237	      2.62897854	     -1.98361235	      0.00000000	    -18.57858490	      1.15967390	    -12.10996252	     20.17917048	      0.35219297	    -19.34700998	     -0.33410152	      0.00000000
      0.08666667	     -2.86278646	     -1.44326365	     -5.35390521	      2.22405483	      1.07175172	      1.02951160	     31.88099526	      2.67311953	     -8.48025729	     39.18120205	      0.68384098	      2.57451346	     -0.15107747	      0.00000000	    -18.02155763	      1.19810556	    -12.38442491	     21.51853233	      0.37556924	    -20.64626602	     -0.99199238	      0.00000000
      0.09333333	     -3.27814074	     -1.27735117	     -5.61974117	      2.22510803	      1.07219205	      1.03043912	     31.98091188	      2.57968326	     -9.21413654	     36.72359769	      0.64094769	      2.72161638	      2.12981759	      0.00000000	    -17.39561451	      1.30265568	    -12.37066947	     23.05229976	      0.40233853	    -21.58869574	     -1.34062943	      0.00000000
      0.10000000	     -3.62409995	     -1.20187298	     -5.97062686	      2.22596377	      1.07228695	      1.03157773	     31.96657481	      2.80429658	     -9.43040216	     34.35273308	      0.59956830	      2.65188086	      3.64148762	      0.00000000	    -16.76508277	      1.37982047	    -12.15482153	     24.75131829	      0.43199200	    -22.42859188	     -1.82246258	      0.00000000
      0.10666667	     -3.91406121	     -1.11378067	     -6.17419580	      2.22662609	      1.07183228	      1.03253934	     31.96975466	      2.89168539	     -9.83563741	     32.39961185	      0.56547990	      2.72554464	      5.32638605	      0.00000000	    -16.00130107	      1.41749306	    -11.69456759	     26.82124758	      0.46811908	    -22.84263385	     -2.07992542	      0.00000000
      0.11333333	     -4.10044718	     -1.07241471	     -6.41504401	      2.22716839	      1.07097663	      1.03354432	     31.89314929	      3.08631003	     -9.98632071	     30.75268425	      0.53673559	      2.78367760	      6.76181634	      0.00000000	    -15.28797966	      1.49264561	    -11.01895589	     29.00186772	      0.50617808	    -23.01811451	     -2.31374669	      0.00000000
      0.12000000	     -4.23563727	     -1.02128482	     -6.59955422	      2.22760865	      1.06977119	      1.03434270	     31.77116429	      3.24973228	    -10.01276155	     29.37889813	      0.51275850	      2.93393357	      8.09134393	      0.00000000	    -14.52860320	      1.60448903	    -10.22123003	     31.34095528	      0.54700286	    -22.84303015	     -2.42767074	      0.00000000
      0.12666667	     -4.21749910	     -1.04511182	     -6.77821778	      2.22786070	      1.06820161	      1.03503659	     31.52743381	      3.47539248	     -9.87054900	     28.36473313	      0.49505798	      3.03288029	      9.17216738	      0.00000000	    -13.83566580	      1.71764545	     -9.27904024	     33.86484091	      0.59105297	    -22.41781986	     -2.59049213	      0.00000000
